<mxfile host="app.diagrams.net" modified="2023-07-27T14:56:13.567Z" agent="Mozilla/5.0 (Macintosh; Intel Mac OS X 10_15_7) AppleWebKit/537.36 (KHTML, like Gecko) Chrome/114.0.0.0 Safari/537.36" etag="PO3hwAeQiBaa618_PUU7" version="21.6.5" type="github">
  <diagram name="第 1 页" id="7pq7YMm68HERYtbyjbUP">
    <mxGraphModel dx="514" dy="692" grid="1" gridSize="10" guides="1" tooltips="1" connect="1" arrows="1" fold="1" page="1" pageScale="1" pageWidth="827" pageHeight="1169" math="0" shadow="0">
      <root>
        <mxCell id="0" />
        <mxCell id="1" parent="0" />
        <mxCell id="FvZ0zgGPlozP_pXlVAZZ-3" value="" style="edgeStyle=orthogonalEdgeStyle;rounded=0;orthogonalLoop=1;jettySize=auto;html=1;" edge="1" parent="1" source="FvZ0zgGPlozP_pXlVAZZ-1" target="FvZ0zgGPlozP_pXlVAZZ-2">
          <mxGeometry relative="1" as="geometry" />
        </mxCell>
        <mxCell id="FvZ0zgGPlozP_pXlVAZZ-1" value="用户输入（终端）" style="rounded=0;whiteSpace=wrap;html=1;" vertex="1" parent="1">
          <mxGeometry x="60" y="110" width="120" height="60" as="geometry" />
        </mxCell>
        <mxCell id="FvZ0zgGPlozP_pXlVAZZ-5" value="" style="edgeStyle=orthogonalEdgeStyle;rounded=0;orthogonalLoop=1;jettySize=auto;html=1;" edge="1" parent="1" source="FvZ0zgGPlozP_pXlVAZZ-2" target="FvZ0zgGPlozP_pXlVAZZ-4">
          <mxGeometry relative="1" as="geometry" />
        </mxCell>
        <mxCell id="FvZ0zgGPlozP_pXlVAZZ-2" value="输入的东西存到txt中" style="rounded=0;whiteSpace=wrap;html=1;" vertex="1" parent="1">
          <mxGeometry x="60" y="230" width="120" height="60" as="geometry" />
        </mxCell>
        <mxCell id="FvZ0zgGPlozP_pXlVAZZ-4" value="txt转换成二维码" style="rounded=0;whiteSpace=wrap;html=1;" vertex="1" parent="1">
          <mxGeometry x="60" y="340" width="120" height="60" as="geometry" />
        </mxCell>
        <mxCell id="FvZ0zgGPlozP_pXlVAZZ-7" value="" style="edgeStyle=orthogonalEdgeStyle;rounded=0;orthogonalLoop=1;jettySize=auto;html=1;" edge="1" parent="1" source="FvZ0zgGPlozP_pXlVAZZ-6" target="FvZ0zgGPlozP_pXlVAZZ-1">
          <mxGeometry relative="1" as="geometry" />
        </mxCell>
        <mxCell id="FvZ0zgGPlozP_pXlVAZZ-6" value="用终端运行js" style="rounded=0;whiteSpace=wrap;html=1;" vertex="1" parent="1">
          <mxGeometry x="60" width="120" height="60" as="geometry" />
        </mxCell>
        <mxCell id="FvZ0zgGPlozP_pXlVAZZ-10" value="" style="edgeStyle=orthogonalEdgeStyle;rounded=0;orthogonalLoop=1;jettySize=auto;html=1;" edge="1" parent="1" source="FvZ0zgGPlozP_pXlVAZZ-8" target="FvZ0zgGPlozP_pXlVAZZ-9">
          <mxGeometry relative="1" as="geometry" />
        </mxCell>
        <mxCell id="FvZ0zgGPlozP_pXlVAZZ-8" value="接受输入" style="rounded=0;whiteSpace=wrap;html=1;" vertex="1" parent="1">
          <mxGeometry x="250" y="110" width="120" height="60" as="geometry" />
        </mxCell>
        <mxCell id="FvZ0zgGPlozP_pXlVAZZ-12" value="" style="edgeStyle=orthogonalEdgeStyle;rounded=0;orthogonalLoop=1;jettySize=auto;html=1;" edge="1" parent="1" source="FvZ0zgGPlozP_pXlVAZZ-9" target="FvZ0zgGPlozP_pXlVAZZ-11">
          <mxGeometry relative="1" as="geometry" />
        </mxCell>
        <mxCell id="FvZ0zgGPlozP_pXlVAZZ-9" value="存到txt中（错误返回）" style="rounded=0;whiteSpace=wrap;html=1;" vertex="1" parent="1">
          <mxGeometry x="250" y="250" width="120" height="60" as="geometry" />
        </mxCell>
        <mxCell id="FvZ0zgGPlozP_pXlVAZZ-11" value="txt转换成二维码（错误返回）" style="rounded=0;whiteSpace=wrap;html=1;" vertex="1" parent="1">
          <mxGeometry x="250" y="390" width="120" height="60" as="geometry" />
        </mxCell>
        <mxCell id="FvZ0zgGPlozP_pXlVAZZ-13" value="用户submit" style="rounded=0;whiteSpace=wrap;html=1;" vertex="1" parent="1">
          <mxGeometry x="420" y="40" width="120" height="60" as="geometry" />
        </mxCell>
        <mxCell id="FvZ0zgGPlozP_pXlVAZZ-14" value="收到，把两个合在一起" style="rounded=0;whiteSpace=wrap;html=1;" vertex="1" parent="1">
          <mxGeometry x="590" y="100" width="120" height="60" as="geometry" />
        </mxCell>
        <mxCell id="FvZ0zgGPlozP_pXlVAZZ-15" value="展示在html中给用户" style="rounded=0;whiteSpace=wrap;html=1;" vertex="1" parent="1">
          <mxGeometry x="590" y="200" width="120" height="60" as="geometry" />
        </mxCell>
        <mxCell id="FvZ0zgGPlozP_pXlVAZZ-16" value="点击" style="rounded=0;whiteSpace=wrap;html=1;" vertex="1" parent="1">
          <mxGeometry x="420" y="280" width="120" height="60" as="geometry" />
        </mxCell>
        <mxCell id="FvZ0zgGPlozP_pXlVAZZ-17" value="复制到剪贴板" style="rounded=0;whiteSpace=wrap;html=1;" vertex="1" parent="1">
          <mxGeometry x="420" y="360" width="120" height="60" as="geometry" />
        </mxCell>
        <mxCell id="FvZ0zgGPlozP_pXlVAZZ-18" value="输入" style="rounded=0;whiteSpace=wrap;html=1;" vertex="1" parent="1">
          <mxGeometry x="280" y="570" width="120" height="60" as="geometry" />
        </mxCell>
        <mxCell id="FvZ0zgGPlozP_pXlVAZZ-20" value="展示" style="rounded=0;whiteSpace=wrap;html=1;" vertex="1" parent="1">
          <mxGeometry x="490" y="740" width="120" height="60" as="geometry" />
        </mxCell>
        <mxCell id="FvZ0zgGPlozP_pXlVAZZ-23" style="edgeStyle=orthogonalEdgeStyle;rounded=0;orthogonalLoop=1;jettySize=auto;html=1;" edge="1" parent="1" source="FvZ0zgGPlozP_pXlVAZZ-21" target="FvZ0zgGPlozP_pXlVAZZ-20">
          <mxGeometry relative="1" as="geometry" />
        </mxCell>
        <mxCell id="FvZ0zgGPlozP_pXlVAZZ-25" style="edgeStyle=orthogonalEdgeStyle;rounded=0;orthogonalLoop=1;jettySize=auto;html=1;" edge="1" parent="1" source="FvZ0zgGPlozP_pXlVAZZ-21" target="FvZ0zgGPlozP_pXlVAZZ-22">
          <mxGeometry relative="1" as="geometry" />
        </mxCell>
        <mxCell id="FvZ0zgGPlozP_pXlVAZZ-21" value="是否正确" style="rhombus;whiteSpace=wrap;html=1;" vertex="1" parent="1">
          <mxGeometry x="510" y="630" width="80" height="80" as="geometry" />
        </mxCell>
        <mxCell id="FvZ0zgGPlozP_pXlVAZZ-22" value="不展示" style="rounded=0;whiteSpace=wrap;html=1;" vertex="1" parent="1">
          <mxGeometry x="660" y="740" width="120" height="60" as="geometry" />
        </mxCell>
      </root>
    </mxGraphModel>
  </diagram>
</mxfile>
